HIERARCHY
ROOT Hips
{
	OFFSET 0.000000 0.000000 0.000000
	CHANNELS 6 Xposition Yposition Zposition Xrotation Yrotation Zrotation
	JOINT LeftUpLeg_virtual
	{
		OFFSET 0.000000 0.000000 0.000000
		CHANNELS 3 Xrotation Yrotation Zrotation
		JOINT LeftUpLeg
		{
			OFFSET 15.427100 -6.655098 0.678600
			CHANNELS 3 Xrotation Yrotation Zrotation
			JOINT LeftLeg
			{
				OFFSET 4.081073 -39.591068 13.024000
				CHANNELS 3 Xrotation Yrotation Zrotation
				JOINT LeftFoot
				{
					OFFSET -4.081074 -37.707932 -15.979700
					CHANNELS 3 Xrotation Yrotation Zrotation
					JOINT LeftToeBase
					{
						OFFSET 5.346399 -15.068900 20.645000
						CHANNELS 3 Xrotation Yrotation Zrotation
						JOINT LeftToe_End
						{
							OFFSET 2.754700 0.931300 11.300900
							CHANNELS 3 Xrotation Yrotation Zrotation
							End Site
							{
								OFFSET 0 0 0
							}
						}
					}
				}
			}
		}
	}
	JOINT RightUpLeg_virtual
	{
		OFFSET 0.000000 0.000000 0.000000
		CHANNELS 3 Xrotation Yrotation Zrotation
		JOINT RightUpLeg
		{
			OFFSET -15.569500 -6.655098 0.678600
			CHANNELS 3 Xrotation Yrotation Zrotation
			JOINT RightLeg
			{
				OFFSET -4.081825 -39.591045 13.023800
				CHANNELS 3 Xrotation Yrotation Zrotation
				JOINT RightFoot
				{
					OFFSET 4.081824 -37.707954 -15.979600
					CHANNELS 3 Xrotation Yrotation Zrotation
					JOINT RightToeBase
					{
						OFFSET -5.346400 -15.068900 20.645000
						CHANNELS 3 Xrotation Yrotation Zrotation
						JOINT RightToe_End
						{
							OFFSET -2.754700 0.931300 11.300900
							CHANNELS 3 Xrotation Yrotation Zrotation
							End Site
							{
								OFFSET 0 0 0
							}
						}
					}
				}
			}
		}
	}
	JOINT Spine_virtual
	{
		OFFSET 0.000000 0.000000 0.000000
		CHANNELS 3 Xrotation Yrotation Zrotation
		JOINT Spine
		{
			OFFSET -0.279200 12.230698 -2.892100
			CHANNELS 3 Xrotation Yrotation Zrotation
			JOINT Spine1
			{
				OFFSET -0.232667 10.192268 -1.242267
				CHANNELS 3 Xrotation Yrotation Zrotation
				JOINT Spine1_split
				{
					OFFSET -0.232667 10.192268 -1.242267
					CHANNELS 3 Xrotation Yrotation Zrotation
					JOINT Spine2
					{
						OFFSET -0.232667 10.192268 -1.242267
						CHANNELS 3 Xrotation Yrotation Zrotation
						JOINT Neck_virtual
						{
							OFFSET 0.000000 0.000000 0.000000
							CHANNELS 3 Xrotation Yrotation Zrotation
							JOINT Neck
							{
								OFFSET -0.418800 17.814194 8.416900
								CHANNELS 3 Xrotation Yrotation Zrotation
								JOINT Head
								{
									OFFSET 0.000000 7.031097 3.806800
									CHANNELS 3 Xrotation Yrotation Zrotation
									JOINT HeadTop_End
									{
										OFFSET 0.000000 24.646606 12.978600
										CHANNELS 3 Xrotation Yrotation Zrotation
										End Site
										{
											OFFSET 0 0 0
										}
									}
								}
							}
						}
						JOINT LeftShoulder_virtual
						{
							OFFSET 0.000000 0.000000 0.000000
							CHANNELS 3 Xrotation Yrotation Zrotation
							JOINT LeftShoulder
							{
								OFFSET 8.476499 7.247704 -3.868750
								CHANNELS 3 Xrotation Yrotation Zrotation
								JOINT LeftShoulder_split
								{
									OFFSET 8.476499 7.247704 -3.868750
									CHANNELS 3 Xrotation Yrotation Zrotation
									JOINT LeftArm
									{
										OFFSET 9.308998 -2.777710 0.208600
										CHANNELS 3 Xrotation Yrotation Zrotation
										JOINT LeftForeArm
										{
											OFFSET 29.972298 0.000000 0.000000
											CHANNELS 3 Xrotation Yrotation Zrotation
											JOINT LeftHand
											{
												OFFSET 26.026505 0.000000 0.000000
												CHANNELS 3 Xrotation Yrotation Zrotation
												End Site
												{
													OFFSET 0 0 0
												}
											}
										}
									}
								}
							}
						}
						JOINT RightShoulder_virtual
						{
							OFFSET 0.000000 0.000000 0.000000
							CHANNELS 3 Xrotation Yrotation Zrotation
							JOINT RightShoulder
							{
								OFFSET -7.570500 7.247704 -3.868750
								CHANNELS 3 Xrotation Yrotation Zrotation
								JOINT RightShoulder_split
								{
									OFFSET -7.570500 7.247704 -3.868750
									CHANNELS 3 Xrotation Yrotation Zrotation
									JOINT RightArm
									{
										OFFSET -9.308998 -2.777710 0.208500
										CHANNELS 3 Xrotation Yrotation Zrotation
										JOINT RightForeArm
										{
											OFFSET -29.972300 0.000000 0.000000
											CHANNELS 3 Xrotation Yrotation Zrotation
											JOINT RightHand
											{
												OFFSET -26.026505 0.000000 0.000000
												CHANNELS 3 Xrotation Yrotation Zrotation
												End Site
												{
													OFFSET 0 0 0
												}
											}
										}
									}
								}
							}
						}
					}
				}
			}
		}
	}
}
MOTION
Frames: 10
Frame Time: 0.03333333
0.970251 91.314133 -3.192478 0.000000 0.000000 0.000000 2.431433 -31.882626 0.342741 -17.329708 17.637355 16.280681 23.293682 9.145668 -1.408887 -5.605799 -0.543178 -9.031356 -0.803966 0.038495 -0.254719 0.000000 0.000000 0.000000 4.854649 -31.180360 1.161967 -13.072614 5.387012 -10.146283 16.789636 8.376024 3.711105 -5.981086 -2.236889 7.536200 2.877480 1.026776 0.252312 0.000000 0.000000 0.000000 0.196959 -34.152667 -1.775952 7.559180 1.697412 -1.879320 -0.006080 0.872713 2.892180 2.503152 2.171493 -0.304655 0.000000 0.000000 0.000000 0.722016 0.783697 4.208108 -2.527794 23.520187 -9.675141 -2.324821 9.794469 7.086100 0.000000 0.000000 0.000000 -0.075150 1.189020 2.928803 0.736313 -13.176034 1.904914 -2.866152 -0.759443 -3.157625 -56.427133 -0.850954 -35.150964 11.374173 -60.361769 14.387104 0.000000 0.000000 0.000000 1.249613 1.226691 3.593596 4.481893 4.119164 8.324839 1.330983 2.311159 -4.018145 -1.587203 -11.489674 65.307598 15.141800 31.523649 -3.066321 0.000000 0.000000 0.000000 
1.250815 91.211952 -3.823742 0.000000 0.000000 0.000000 2.736665 -31.109196 0.895822 -17.229646 16.920009 16.031354 23.032110 8.885384 -1.701753 -5.711591 -0.905955 -8.516435 0.010473 -0.004950 -0.389816 0.000000 0.000000 0.000000 4.872728 -30.439069 1.533604 -13.303083 4.516232 -10.842296 16.649078 8.412269 3.545164 -6.103733 -2.288412 6.784835 4.992525 1.133082 0.316384 0.000000 0.000000 0.000000 0.470012 -34.759775 -1.263423 7.613750 1.523558 -1.521322 0.008987 0.618992 2.795457 1.597294 3.192347 -0.529357 0.000000 0.000000 0.000000 1.037886 0.467459 4.049828 -2.151530 23.273149 -9.569896 -2.936224 10.519440 6.343599 0.000000 0.000000 0.000000 -0.170743 0.989802 2.876630 0.476706 -12.245667 1.484586 -1.225299 -2.022090 -2.508286 -56.952696 -1.179791 -35.668658 12.334845 -60.902994 14.615623 0.000000 0.000000 0.000000 1.043039 0.850719 3.453109 4.167982 3.914455 7.636863 1.047852 1.382844 -3.109961 -1.849397 -10.585851 66.134481 14.382983 29.713795 -2.413010 0.000000 0.000000 0.000000 
1.574689 91.026169 -4.463772 0.000000 0.000000 0.000000 3.260422 -30.680506 1.753774 -17.015330 16.283253 15.852681 22.164182 9.059516 -2.024688 -5.863930 -0.857075 -7.734032 0.720975 -0.098212 -0.513844 0.000000 0.000000 0.000000 4.982357 -29.328989 2.084944 -14.544442 3.388291 -11.834084 17.395976 8.824909 3.360598 -5.386834 -2.068573 6.696802 4.642451 1.190709 0.376857 0.000000 0.000000 0.000000 1.148294 -35.324263 -0.405306 7.977442 1.240763 -0.564745 0.056516 0.308551 2.192692 1.016231 3.882039 -0.479707 0.000000 0.000000 0.000000 1.502353 0.119861 3.387192 -2.305352 22.643443 -10.057570 -4.366031 11.676585 5.014814 0.000000 0.000000 0.000000 -0.124503 0.813318 2.392379 0.175467 -10.878502 0.534810 0.280941 -3.154669 -1.300645 -56.681360 -1.121309 -35.879564 10.828206 -61.747956 12.555693 0.000000 0.000000 0.000000 0.850754 0.427834 2.814336 3.771460 3.925340 5.790933 0.360786 0.664429 -2.007844 -1.461485 -10.473112 68.316993 12.894093 27.425964 -1.211770 0.000000 0.000000 0.000000 
2.083720 90.673920 -5.072861 0.000000 0.000000 0.000000 3.839048 -31.036793 2.734780 -17.023661 15.561469 15.858263 21.437800 9.186936 -2.394881 -5.822828 -0.799860 -7.394008 0.448845 -0.216179 -0.385263 0.000000 0.000000 0.000000 5.066645 -28.684042 2.756827 -16.950571 2.291053 -12.886873 19.236432 9.396793 3.099941 -4.466884 -1.795352 6.631542 2.746654 1.155917 0.506823 0.000000 0.000000 0.000000 2.153376 -36.003730 0.714519 8.693037 0.915948 0.766733 0.130871 0.005029 1.203607 1.017616 4.157075 0.071757 0.000000 0.000000 0.000000 1.935567 -0.158423 2.303193 -2.805888 21.503758 -11.074391 -6.322798 12.968300 3.348573 0.000000 0.000000 0.000000 0.089160 0.657350 1.536324 -0.110611 -9.408796 -0.736373 1.568519 -3.846031 -0.106966 -55.834095 -0.173073 -34.997326 6.464931 -62.660060 7.958106 0.000000 0.000000 0.000000 0.713216 0.057902 1.762114 3.442720 3.979789 2.929693 -0.309926 0.110637 -1.010830 -0.041351 -11.345042 71.711454 11.028792 26.218900 0.165172 0.000000 0.000000 0.000000 
2.788204 90.133308 -5.466957 0.000000 0.000000 0.000000 4.345233 -32.351300 3.687502 -17.443495 14.413212 16.007096 21.873476 8.894360 -2.794954 -5.583922 -1.119840 -7.842219 -0.546230 -0.357053 -0.065999 0.000000 0.000000 0.000000 5.157854 -29.338319 3.497281 -20.445102 1.566141 -13.563622 21.982161 9.846173 2.760580 -3.712814 -1.604745 6.044117 1.371928 1.032766 0.652323 0.000000 0.000000 0.000000 3.342146 -37.054237 2.017757 9.835983 0.630126 2.190208 0.182477 -0.206125 0.012881 0.986887 4.078936 0.483961 0.000000 0.000000 0.000000 2.232735 -0.293550 1.011083 -3.409282 19.725045 -12.361893 -8.595072 13.951110 1.609473 0.000000 0.000000 0.000000 0.408242 0.552928 0.459476 -0.326798 -8.327236 -1.791326 2.732332 -3.985202 0.815009 -54.847177 1.902146 -32.711637 -0.584344 -63.532985 0.891933 0.000000 0.000000 0.000000 0.596533 -0.181139 0.487146 3.250775 4.020025 -0.709965 -0.588237 -0.545938 -0.092477 2.952599 -12.688843 75.834825 9.149281 26.827909 1.397914 0.000000 0.000000 0.000000 
3.692094 89.320602 -5.446247 0.000000 0.000000 0.000000 4.697221 -34.682505 4.426682 -18.472269 12.583970 16.037127 23.940353 8.291844 -3.195626 -6.319223 -1.841813 -8.542109 -1.051100 -0.529371 0.184571 0.000000 0.000000 0.000000 5.218684 -31.862187 4.238347 -25.053605 1.519356 -13.654492 25.414885 10.241370 2.375836 -2.654024 -1.247422 5.362946 1.268374 0.864134 0.709538 0.000000 0.000000 0.000000 4.699091 -39.048038 3.391646 11.467324 0.464070 3.411688 0.171593 -0.246481 -1.091256 0.378937 3.937315 0.746463 0.000000 0.000000 0.000000 2.361218 -0.282471 -0.225583 -3.870663 17.119056 -13.561461 -10.990287 13.993118 0.131283 0.000000 0.000000 0.000000 0.740066 0.511426 -0.569212 -0.437051 -7.774020 -2.211067 3.722240 -3.703034 1.337438 -54.757333 4.756212 -29.440841 -9.710742 -64.657152 -8.235121 0.000000 0.000000 0.000000 0.480364 -0.274640 -0.715182 3.226583 4.079053 -4.727070 -0.631939 -1.311685 0.562717 7.575141 -13.549854 79.969822 7.627434 29.318457 2.226294 0.000000 0.000000 0.000000 
4.771526 88.212502 -5.218391 0.000000 0.000000 0.000000 4.867374 -37.807372 4.841322 -19.897970 9.824276 15.770871 27.168081 7.505873 -3.434355 -9.305457 -2.757068 -9.118305 -0.814587 -0.694258 0.309578 0.000000 0.000000 0.000000 5.464125 -36.253333 4.960250 -30.364067 2.334728 -13.089861 28.512556 11.002098 1.961471 -0.481139 -0.211782 5.852858 1.455834 0.708016 0.518770 0.000000 0.000000 0.000000 6.014089 -42.117634 4.662582 13.619289 0.450291 4.221739 0.072438 -0.110570 -1.803729 -0.325554 3.780460 0.692840 0.000000 0.000000 0.000000 2.301240 -0.110423 -1.121704 -4.001879 13.640851 -14.296459 -13.449276 12.611663 -0.906248 0.000000 0.000000 0.000000 0.938793 0.555264 -1.245688 -0.454533 -7.770557 -1.843229 4.512005 -2.847405 1.403106 -56.220581 7.511092 -26.094097 -20.722632 -66.210631 -19.381307 0.000000 0.000000 0.000000 0.378025 -0.211111 -1.527575 3.384961 4.393494 -8.596097 -0.720989 -2.126894 0.968724 13.019926 -13.116469 83.005643 6.924268 32.623268 2.241639 0.000000 0.000000 0.000000 
5.919963 86.920639 -4.767254 0.000000 0.000000 0.000000 4.982256 -41.872225 4.927295 -21.149206 6.115851 15.131236 30.965537 6.628609 -3.451990 -14.300273 -3.483450 -9.702563 -0.535935 -0.785828 0.336416 0.000000 0.000000 0.000000 6.003720 -42.077114 5.565327 -35.636317 3.943318 -11.697068 30.079446 12.339086 1.429708 3.129858 1.938253 8.141263 1.188931 0.616857 0.053037 0.000000 0.000000 0.000000 7.262920 -46.231256 5.699075 16.194495 0.575596 4.465579 -0.152429 0.130133 -1.905732 -0.500937 3.281855 0.270843 0.000000 0.000000 0.000000 2.063509 0.171062 -1.404446 -3.719748 9.202452 -14.154960 -15.793066 9.460644 -1.471666 0.000000 0.000000 0.000000 0.946115 0.680282 -1.332676 -0.335785 -8.309824 -0.563534 5.377339 -1.638280 1.308802 -59.404723 9.251696 -23.557203 -33.109926 -67.905256 -32.256596 0.000000 0.000000 0.000000 0.286729 -0.021156 -1.678321 3.668904 5.163300 -11.777579 -1.205640 -2.418933 1.248747 18.126969 -10.887846 83.765570 7.497987 35.245139 0.978043 0.000000 0.000000 0.000000 
7.266498 85.551987 -4.241119 0.000000 0.000000 0.000000 5.224670 -47.108747 4.756848 -22.151615 1.857540 14.439793 35.006710 5.893099 -3.318104 -19.747733 -3.743788 -10.478121 -0.833860 -0.764442 0.335011 0.000000 0.000000 0.000000 6.758763 -48.754239 5.897681 -40.158896 5.826613 -9.602243 29.324649 14.043858 0.848082 7.713170 5.180773 11.499551 0.814522 0.640306 -0.453138 0.000000 0.000000 0.000000 8.430146 -51.285548 6.424241 18.981253 0.760868 4.137562 -0.456392 0.414172 -1.298267 -0.170485 2.514754 0.191105 0.000000 0.000000 0.000000 1.671760 0.486426 -0.953074 -3.020479 4.017120 -12.844107 -17.735998 4.587096 -1.554502 0.000000 0.000000 0.000000 0.740937 0.836506 -0.742706 -0.063742 -9.299543 1.423336 6.310679 -0.415658 1.273451 -63.821458 9.832797 -22.258207 -45.432748 -69.265167 -45.391692 0.000000 0.000000 0.000000 0.238552 0.237871 -1.080587 4.040185 6.428344 -13.808721 -1.930959 -1.784606 1.222166 21.690830 -7.285440 81.833125 9.454992 36.101921 -1.638512 0.000000 0.000000 0.000000 
8.752548 84.284668 -3.786484 0.000000 0.000000 0.000000 5.394331 -53.485579 4.322764 -22.792392 -2.070568 14.190194 39.367950 5.664977 -3.149861 -24.182169 -3.395463 -10.998700 -1.643187 -0.663286 0.212404 0.000000 0.000000 0.000000 7.782201 -55.817856 6.076535 -43.418771 7.307949 -7.053785 26.533857 15.438181 0.389424 12.138634 8.596474 14.574184 0.775014 0.749100 -0.684618 0.000000 0.000000 0.000000 9.349086 -56.935139 6.741176 21.748594 0.888060 3.394143 -0.771835 0.671309 -0.085787 0.545821 2.016903 0.420576 0.000000 0.000000 0.000000 1.157440 0.787353 0.144209 -1.937320 -1.602443 -10.297119 -19.192174 -1.663333 -1.313835 0.000000 0.000000 0.000000 0.353182 0.973491 0.411170 0.391101 -10.784080 3.845241 6.936128 0.670304 1.268391 -68.472523 9.609332 -22.281431 -55.228527 -70.124494 -56.201279 0.000000 0.000000 0.000000 0.127283 0.522438 0.147230 4.489100 8.170655 -14.643827 -2.834625 -0.754614 0.805275 23.079155 -3.021793 77.379527 12.318920 34.818115 -5.082167 0.000000 0.000000 0.000000 
